<svg xmlns="http://www.w3.org/2000/svg" xmlns:xlink="http://www.w3.org/1999/xlink" width="24" height="24" viewBox="0 0 24 24"><defs><style>.a{fill:none;}.b{clip-path:url(#a);}</style><clipPath id="a"><rect class="a" width="24" height="24"/></clipPath></defs><rect class="a" width="24" height="24"/><g class="b"><path d="M15.245,18.98H4.449A3.014,3.014,0,0,1,1.48,16.4L.01,6.121A1,1,0,0,1,1,4.98H3.546L7.944.764a2.751,2.751,0,0,1,3.805,0l4.4,4.216h2.545a1,1,0,0,1,.99,1.141L18.215,16.4A3.015,3.015,0,0,1,15.245,18.98ZM1.577,6.48l1.387,9.712A1.508,1.508,0,0,0,4.449,17.48h10.8a1.507,1.507,0,0,0,1.485-1.288L18.118,6.48ZM9.847,1.5a1.246,1.246,0,0,0-.865.348L5.714,4.98h8.266L10.712,1.848A1.243,1.243,0,0,0,9.847,1.5Z" transform="translate(2.153 2.02)"/><path d="M1.5.75v4a.75.75,0,0,1-1.5,0v-4a.75.75,0,0,1,1.5,0Z" transform="translate(7.25 11.25)"/><path d="M1.5.75v4a.75.75,0,0,1-1.5,0v-4a.75.75,0,0,1,1.5,0Z" transform="translate(11.25 11.25)"/><path d="M1.5.75v4a.75.75,0,0,1-1.5,0v-4a.75.75,0,0,1,1.5,0Z" transform="translate(15.25 11.25)"/></g></svg>