<svg id="Group" xmlns="http://www.w3.org/2000/svg" width="22.002" height="20.761" viewBox="0 0 22.002 20.761">
  <g id="Group-2" data-name="Group" transform="translate(0.003 9.188)">
    <path id="Vector" d="M5.585,0V-1.94a.873.873,0,0,0-.871-.871H2.705l-1.2-.605L0-2.812V0H5.585Z" transform="translate(5.585) rotate(180)" fill="#ffef60"/>
  </g>
  <g id="Group-3" data-name="Group" transform="translate(0.003 6.373)">
    <path id="Vector-2" data-name="Vector" d="M4.714,0a.873.873,0,0,0,.871-.871V-2.313H0V-.871A.873.873,0,0,0,.871,0Z" transform="translate(5.585) rotate(180)" fill="#ffef60"/>
  </g>
  <g id="Group-4" data-name="Group" transform="translate(0.003 8.252)">
    <path id="Vector-3" data-name="Vector" d="M5.585,0V-1.37H0V0Z" transform="translate(5.585) rotate(180)" fill="#ff814e"/>
  </g>
  <g id="Group-5" data-name="Group" transform="translate(0.004 6.373)">
    <path id="Vector-4" data-name="Vector" d="M1.586-1.879h.45V-.872a.873.873,0,0,1-.45.762A.87.87,0,0,1,1.166,0H0A.873.873,0,0,0,.871-.871V-1.879h.715Z" transform="translate(2.037) rotate(180)" fill="#ffcd1b"/>
  </g>
  <g id="Group-6" data-name="Group" transform="translate(0 8.252)">
    <path id="Vector-5" data-name="Vector" d="M.715-1.37h.45V0H0V-1.37Z" transform="translate(1.166) rotate(180)" fill="#ff5a17"/>
  </g>
  <g id="Group-7" data-name="Group" transform="translate(0.004 9.622)">
    <path id="Vector-6" data-name="Vector" d="M.871-1.507A.873.873,0,0,0,0-2.378H1.166a.869.869,0,0,1,.42.108.877.877,0,0,1,.45.764V0H.871Z" transform="translate(2.037) rotate(180)" fill="#ffcd1b"/>
  </g>
  <g id="Group-8" data-name="Group" transform="translate(2.882 12)">
    <path id="Vector-7" data-name="Vector" d="M9.35,0V-1.245a.544.544,0,0,0-.542-.542H0C0-1,0-.607.6-.607H1.791A1.674,1.674,0,0,1,3.308,0H9.35Z" transform="translate(9.35) rotate(180)" fill="#635448"/>
  </g>
  <g id="Group-9" data-name="Group" transform="translate(2.8 13.787)">
    <path id="Vector-8" data-name="Vector" d="M12.45,0a4.769,4.769,0,0,0,.5-3.56c-.527,1.793-5.88,1.077-6.429-.992H.619C.4-4.046.184-3.546,0-3.041H1.665C5.033-1.771,3.95-2.337,4.7,0H12.45Z" transform="translate(13.072) rotate(180)" fill="#ff8c5e"/>
  </g>
  <g id="Group-10" data-name="Group" transform="translate(7.596 4.338)">
    <path id="Vector-9" data-name="Vector" d="M.648-6.3l1.7-.667,1.9.667C4.182-2.712,2.84-.989,1.7-.431A2.772,2.772,0,0,1,.865,0S.31-.887.281-.887A4.766,4.766,0,0,1,0-2.771L.2-4.588A12.644,12.644,0,0,1,.648-6.3Z" transform="translate(4.249) rotate(180)" fill="snow"/>
  </g>
  <g id="Group-11" data-name="Group" transform="translate(7.591 10.643)">
    <path id="Vector-10" data-name="Vector" d="M1.85,0C1.02-.09,0-.722,0-2.679V-4.729l.817-.487,1.062.487v1.585c0,.782,0,1.18.6,1.18H3.67a1.674,1.674,0,0,1,1.517.605A2.222,2.222,0,0,1,5.451,0H1.85Z" transform="translate(5.457) rotate(180)" fill="#ff8086"/>
  </g>
  <g id="Group-12" data-name="Group" transform="translate(7.597 4.77)">
    <path id="Vector-11" data-name="Vector" d="M.565,0A2.306,2.306,0,0,0,0-.29c1.011-.765,2.025-2.474,2.083-5.583H3.116C3.049-2.28,1.707-.558.565,0Z" transform="translate(3.116) rotate(180)" fill="#ffc8c8"/>
  </g>
  <g id="Group-13" data-name="Group" transform="translate(7.591 10.643)">
    <path id="Vector-12" data-name="Vector" d="M1.055,0A2.223,2.223,0,0,0,.792-1.358,1.551,1.551,0,0,0,0-1.963H.307a1.674,1.674,0,0,1,1.517.605A2.223,2.223,0,0,1,2.088,0H1.055Z" transform="translate(2.094) rotate(180)" fill="#f76672"/>
  </g>
  <g id="Group-14" data-name="Group" transform="translate(2.772 15.003)">
    <path id="Vector-13" data-name="Vector" d="M3.287,0A3.287,3.287,0,0,0,6.429-2.345a3.367,3.367,0,0,0,.144-.887c0-.121-.079-.105-.192-.105q-3.19,0-6.382,0H0A3.3,3.3,0,0,0,3.287,0Z" transform="translate(6.574) rotate(180)" fill="#ff8c5d"/>
  </g>
  <g id="Group-15" data-name="Group" transform="translate(3.518 18.339)">
    <path id="Vector-14" data-name="Vector" d="M5,0A2.531,2.531,0,0,0,2.5-2.421,2.531,2.531,0,0,0,0,0H5Z" transform="translate(5.004) rotate(180)" fill="#292019"/>
  </g>
  <g id="Group-16" data-name="Group" transform="translate(16.924 17.806)">
    <path id="Vector-15" data-name="Vector" d="M4.362-.991A2.209,2.209,0,0,0,1.714-2.65,2.21,2.21,0,0,0,.057,0h0Z" transform="translate(4.362) rotate(180)" fill="#292019"/>
  </g>
  <g id="Group-17" data-name="Group" transform="translate(16.074 15.296)">
    <path id="Vector-16" data-name="Vector" d="M3.22-.015A3.054,3.054,0,0,0,5.928-3.043a3,3,0,0,0-.067-.594c-.013-.055-.049-.033-.109-.019L5.078-3.5.773-2.51.45-2.436l-.45.1A2.981,2.981,0,0,0,.45-1.3,3,3,0,0,0,3.22-.015Z" transform="translate(5.928) rotate(180)" fill="snow"/>
  </g>
  <g id="Group-18" data-name="Group" transform="translate(14.819 8.937)">
    <path id="Vector-17" data-name="Vector" d="M1.739-.35,2.522,0,3.4-.35a10.128,10.128,0,0,1-.053-7.541c.186-.5.4-1,.619-1.511H2.713L0-6.368Z" transform="translate(3.964) rotate(180)" fill="#ff814e"/>
  </g>
  <g id="Group-19" data-name="Group" transform="translate(10.561 2.106)">
    <path id="Vector-18" data-name="Vector" d="M2.173,0c.207-.019.8-.516.8-.828L2.538-3.035a1.993,1.993,0,0,0-.571-.084A1.969,1.969,0,0,0,0-1.149a1.954,1.954,0,0,0,.133.715h0Z" transform="translate(2.973) rotate(180)" fill="#ffece4"/>
  </g>
  <g id="Group-20" data-name="Group" transform="translate(9.087)">
    <path id="Vector-19" data-name="Vector" d="M2.484,0A2.512,2.512,0,0,0,4.969-2.54,2.659,2.659,0,0,0,3.91-4.769a2.37,2.37,0,0,0-.846-.372v2.208c0,.311-.158.374-.365.393H0A2.512,2.512,0,0,0,2.484,0Z" transform="translate(4.969) rotate(180)" fill="#ff8c5d"/>
  </g>
  <g id="Group-21" data-name="Group" transform="translate(9.089)">
    <path id="Vector-20" data-name="Vector" d="M1.3,0A2.512,2.512,0,0,0,3.784-2.54,2.659,2.659,0,0,0,2.725-4.769a2.305,2.305,0,0,0-.576-.294A2.89,2.89,0,0,1,2.927-3.01,2.627,2.627,0,0,1,.33-.354,2.386,2.386,0,0,1,0-.375,2.425,2.425,0,0,0,1.3,0Z" transform="translate(3.784) rotate(180)" fill="#ff5a17"/>
  </g>
  <g id="Group-22" data-name="Group" transform="translate(11.17 15.372)">
    <path id="Vector-21" data-name="Vector" d="M3.042,0V-1.184c0-.254-.138-.273-.341-.273H0C-.051-.269.668,0,1.162,0Z" transform="translate(3.042) rotate(180)" fill="#635448"/>
  </g>
  <g id="Group-23" data-name="Group" transform="translate(14.822 9.288)">
    <path id="Vector-22" data-name="Vector" d="M1.638,0H.753A10.122,10.122,0,0,1,.7-7.541c.184-.5.4-1,.619-1.511H2.2c-.222.506-.433,1.006-.619,1.511A10.128,10.128,0,0,0,1.638,0Z" transform="translate(2.204) rotate(180)" fill="#ff5a17"/>
  </g>
  <g id="Group-24" data-name="Group" transform="translate(16.075 15.296)">
    <path id="Vector-23" data-name="Vector" d="M.824-.015A2.959,2.959,0,0,1,0-.047l2.6-2.91a2.994,2.994,0,0,0-.051-.514l.132-.03.674-.154c.06-.014.1-.036.109.019a3.006,3.006,0,0,1,.066.594h0Z" transform="translate(3.532) rotate(180)" fill="#ffc8c8"/>
  </g>
  <g id="Group-25" data-name="Group" transform="translate(2.8 13.787)">
    <path id="Vector-24" data-name="Vector" d="M0,0V-.682H6.364a.943.943,0,0,0,.966-.677,3.143,3.143,0,0,0,.257-1A3.329,3.329,0,0,0,8.25-3.56,4.77,4.77,0,0,1,7.746,0H0Z" transform="translate(8.368) rotate(180)" fill="#ff5a17"/>
  </g>
  <g id="Group-26" data-name="Group" transform="translate(2.774 15.003)">
    <path id="Vector-25" data-name="Vector" d="M.721,0A3.326,3.326,0,0,1,0-.079,3.314,3.314,0,0,0,2.564-3.231c0-.083-.035-.1-.1-.105H3.816c.113,0,.2-.015.192.105a3.367,3.367,0,0,1-.144.887l-.008.024h0A3.33,3.33,0,0,1,3.2-1.139,3.261,3.261,0,0,1,.721,0Z" transform="translate(4.008) rotate(180)" fill="#ff5a17"/>
  </g>
  <g id="Group-27" data-name="Group" transform="translate(16.925 17.806)">
    <path id="Vector-26" data-name="Vector" d="M.057,0A2.2,2.2,0,0,1,0-.589l3.313-.762.13-.03a2.2,2.2,0,0,0-.851-1.291A2.207,2.207,0,0,1,4.362-.991l-.132.03Z" transform="translate(4.362) rotate(180)" fill="#635448"/>
  </g>
  <g id="Group-28" data-name="Group" transform="translate(3.517 18.339)">
    <path id="Vector-27" data-name="Vector" d="M0,0A2.6,2.6,0,0,1,.154-.755H3.882A2.586,2.586,0,0,0,3.269-2.3,2.555,2.555,0,0,1,5,0H0Z" transform="translate(5.004) rotate(180)" fill="#635448"/>
  </g>
  <g id="Group-29" data-name="Group" transform="translate(2.881 12)">
    <path id="Vector-28" data-name="Vector" d="M2.242,0H.542V-1.244A.544.544,0,0,0,0-1.787H1.7a.544.544,0,0,1,.542.542Z" transform="translate(2.242) rotate(180)" fill="#292019"/>
  </g>
  <g id="Group-30" data-name="Group" transform="translate(10.993 2.54)">
    <path id="Vector-29" data-name="Vector" d="M1.676-.5c.207-.019.365-.083.365-.394V-2.682a2.012,2.012,0,0,1,.487.082V-.393c0,.311-.158.374-.365.393H.123A1.972,1.972,0,0,1,0-.5H1.676Z" transform="translate(2.528) rotate(180)" fill="#ffddce"/>
  </g>
  <g id="Group-31" data-name="Group" transform="translate(15.017 7.31)">
    <path id="Vector-30" data-name="Vector" d="M2.822-.859a2.086,2.086,0,0,0-.093-1.119H0V-.25c0,.34.177.265.474.167h0Z" transform="translate(2.868) rotate(180)" fill="#ffe07d"/>
  </g>
  <g id="Group-32" data-name="Group" transform="translate(13.676 8.081)">
    <path id="Vector-31" data-name="Vector" d="M1.464-1.207H.474c-.637,0-.656,1.057.093,1.119L1.661,0l.294-.622-.294-.585Z" transform="translate(1.955) rotate(180)" fill="#ffece4"/>
  </g>
  <g id="Group-33" data-name="Group" transform="translate(9.971 6.512)">
    <path id="Vector-32" data-name="Vector" d="M2.515-.259C3.5.588,4.742-.842,3.427-1.7L2.32-2.414l-.557-.362H0v1.207l1.1.089L2.122-.6Z" transform="translate(3.996) rotate(180)" fill="#ff8086"/>
  </g>
  <g id="Group-34" data-name="Group" transform="translate(13.969 8.693)">
    <path id="Vector-33" data-name="Vector" d="M1.661-.01H.112A.486.486,0,0,0,0,0,.491.491,0,0,1,.474-.6H1.661Z" transform="translate(1.661) rotate(180)" fill="#ffddce"/>
  </g>
  <g id="Group-35" data-name="Group" transform="translate(9.971 6.657)">
    <path id="Vector-34" data-name="Vector" d="M3.629,0a1.029,1.029,0,0,0-.565-.967L2.2-1.526l-.243-.159L1.4-2.046H0v-.585H1.763l.557.362,1.107.718C4.222-1.033,4.082-.306,3.629,0Z" transform="translate(3.996) rotate(180)" fill="#f76672"/>
  </g>
  <g id="Group-36" data-name="Group" transform="translate(15.062 7.857)">
    <path id="Vector-35" data-name="Vector" d="M.358,0A1.436,1.436,0,0,1,.092-1.43H1.21a.491.491,0,0,0-.469.6A.589.589,0,0,0,1.3-.311h0Z" transform="translate(1.303) rotate(180)" fill="#ffc269"/>
  </g>
</svg>
