<svg xmlns="http://www.w3.org/2000/svg" width="96.741" height="32.716" viewBox="0 0 96.741 32.716"><defs><style>.a{fill:#505050;}</style></defs><g transform="translate(0)"><path class="a" d="M70.853,22.432H66.341l3.712-8.192L63.364.48h4.768L72.325,9.7,76.2.48h4.544ZM6.56,16.7a8.676,8.676,0,0,1-2.976-.48,5.65,5.65,0,0,1-2.048-1.281A7.437,7.437,0,0,1,.448,13.376,5.643,5.643,0,0,1,0,11.84l3.648-.8a2.544,2.544,0,0,0,.8,1.728,3.065,3.065,0,0,0,2.08.671,2.369,2.369,0,0,0,1.536-.447,1.4,1.4,0,0,0,.544-1.12c0-.786-.57-1.3-1.7-1.536l-2.08-.48A6.076,6.076,0,0,1,1.5,8.128,4.4,4.4,0,0,1,.416,5.152,4.76,4.76,0,0,1,2.08,1.5,6.159,6.159,0,0,1,6.3,0,7.676,7.676,0,0,1,9.12.48a4.73,4.73,0,0,1,1.888,1.184A5.634,5.634,0,0,1,12.032,3.1a4.873,4.873,0,0,1,.448,1.44l-3.552.8A2.618,2.618,0,0,0,8.16,3.872a2.415,2.415,0,0,0-1.824-.64A2.369,2.369,0,0,0,4.9,3.68,1.371,1.371,0,0,0,4.32,4.8c0,.764.484,1.238,1.44,1.408L8,6.688a6.38,6.38,0,0,1,3.456,1.76,4.32,4.32,0,0,1,1.216,3.072,4.907,4.907,0,0,1-1.6,3.648A6.278,6.278,0,0,1,6.56,16.7Zm13.633-.064a5.651,5.651,0,0,1-4.384-1.76,6.458,6.458,0,0,1-1.6-4.448V.48h4.256V9.568a3.529,3.529,0,0,0,.735,2.3,2.674,2.674,0,0,0,2.145.864,2.888,2.888,0,0,0,2.175-.832,3.225,3.225,0,0,0,.8-2.272V.48h4.256v12.9a24.153,24.153,0,0,0,.16,2.848H24.673a9.089,9.089,0,0,1-.128-1.7,3.86,3.86,0,0,1-1.823,1.6A6.333,6.333,0,0,1,20.193,16.64Zm32.669-.415H48.606V.48h4.128V2.432A4.412,4.412,0,0,1,54.654.672,5.941,5.941,0,0,1,57.279.064,5.162,5.162,0,0,1,61.5,1.824,6.7,6.7,0,0,1,62.975,6.3v9.92H58.719V7.04a3.4,3.4,0,0,0-.736-2.272A2.653,2.653,0,0,0,55.806,3.9a2.7,2.7,0,0,0-2.144.928,3.462,3.462,0,0,0-.8,2.335v9.057Zm-17.087,0H31.519V.48h4.128V2.432A4.412,4.412,0,0,1,37.567.672,5.941,5.941,0,0,1,40.191.064a5.162,5.162,0,0,1,4.224,1.76A6.7,6.7,0,0,1,45.887,6.3v9.92H41.631V7.04A3.4,3.4,0,0,0,40.9,4.768,2.655,2.655,0,0,0,38.719,3.9a2.7,2.7,0,0,0-2.144.928,3.462,3.462,0,0,0-.8,2.335v9.057Z" transform="translate(0 10.284)"/><path class="a" d="M9.557,8.509h-1.4V0h1.92l2.76,6.492L15.557,0h1.956V8.507H16.085V2.244L13.433,8.508H12.185L9.557,2.268v6.24Zm-5.357,0H2.76V1.356H0V0H6.972V1.356H4.2v7.15Z" transform="translate(79.228)"/></g></svg>