<svg xmlns="http://www.w3.org/2000/svg" xmlns:xlink="http://www.w3.org/1999/xlink" width="24" height="24" viewBox="0 0 24 24"><defs><style>.a{fill:none;}.b{clip-path:url(#a);}</style><clipPath id="a"><rect class="a" width="24" height="24"/></clipPath></defs><rect class="a" width="24" height="24"/><g class="b"><path d="M5,10a5,5,0,1,1,5-5A5.006,5.006,0,0,1,5,10ZM5,1.5A3.5,3.5,0,1,0,8.5,5,3.5,3.5,0,0,0,5,1.5Z" transform="translate(7 2)"/><path d="M1.5,5.75v1a.75.75,0,0,1-1.5,0v-1A5.75,5.75,0,0,1,5.75,0h6A5.75,5.75,0,0,1,17.5,5.75v1a.75.75,0,0,1-1.5,0v-1A4.25,4.25,0,0,0,11.75,1.5h-6A4.25,4.25,0,0,0,1.5,5.75Z" transform="translate(3.25 14.25)"/></g></svg>